HIERARCHY
ROOT hip
{
  OFFSET 0 90.174 2.4664
  CHANNELS 6 Xposition Yposition Zposition Zrotation Xrotation Yrotation
  JOINT abdomen
  {
    OFFSET 0 -1.186 -1.5018
    CHANNELS 6 Xposition Yposition Zposition Zrotation Xrotation Yrotation
    JOINT abdomen2
    {
      OFFSET 0 9.964 0.2134
      CHANNELS 6 Xposition Yposition Zposition Zrotation Xrotation Yrotation
      JOINT chest
      {
        OFFSET 0 13.134 -3.2573
        CHANNELS 6 Xposition Yposition Zposition Zrotation Xrotation Yrotation
        JOINT neck
        {
          OFFSET 0 20.686 -1.6905
          CHANNELS 6 Xposition Yposition Zposition Zrotation Xrotation Yrotation
          JOINT head
          {
            OFFSET 0 7.238 -0.1237
            CHANNELS 6 Xposition Yposition Zposition Zrotation Xrotation Yrotation
            End Site
            {
              OFFSET 0 0 0
            }
          }
        }
        JOINT lCollar
        {
          OFFSET 1.7069 20.075 5.0056
          CHANNELS 6 Xposition Yposition Zposition Zrotation Xrotation Yrotation
          JOINT lShldr
          {
            OFFSET 13.6458 -0.047 -4.849
            CHANNELS 6 Xposition Yposition Zposition Zrotation Xrotation Yrotation
            JOINT lForeArm
            {
              OFFSET 28.3255 -0.9759 2.2888
              CHANNELS 6 Xposition Yposition Zposition Zrotation Xrotation Yrotation
              JOINT lHand
              {
                OFFSET 22.1583 -0.53 10.8316
                CHANNELS 6 Xposition Yposition Zposition Zrotation Xrotation Yrotation
                JOINT lThumb1
                {
                  OFFSET 0.786 0.112 2.5817
                  CHANNELS 6 Xposition Yposition Zposition Zrotation Xrotation Yrotation
                  JOINT lThumb2
                  {
                    OFFSET 0.3601 -0.878 4.2331
                    CHANNELS 6 Xposition Yposition Zposition Zrotation Xrotation Yrotation
                    JOINT lThumb2_End
                    {
                      OFFSET 1.8127 -1.216 2.2227
                      CHANNELS 6 Xposition Yposition Zposition Zrotation Xrotation Yrotation
                      End Site
                      {
                        OFFSET 0.0181 -0.0122 0.0222
                      }
                    }
                  }
                }
                JOINT lCarpal1
                {
                  OFFSET 0.9571 1.114 1.7695
                  CHANNELS 6 Xposition Yposition Zposition Zrotation Xrotation Yrotation
                  JOINT lIndex1
                  {
                    OFFSET 4.1246 0.487 4.1451
                    CHANNELS 6 Xposition Yposition Zposition Zrotation Xrotation Yrotation
                    JOINT lIndex2
                    {
                      OFFSET 3.4052 -1.454 2.7682
                      CHANNELS 6 Xposition Yposition Zposition Zrotation Xrotation Yrotation
                      JOINT lIndex2_End
                      {
                        OFFSET 1.4531 -1.795 1.2713
                        CHANNELS 6 Xposition Yposition Zposition Zrotation Xrotation Yrotation
                        End Site
                        {
                          OFFSET 0.0145 -0.0179 0.0127
                        }
                      }
                    }
                  }
                  JOINT lMid1
                  {
                    OFFSET 5.6954 0.21 2.1184
                    CHANNELS 6 Xposition Yposition Zposition Zrotation Xrotation Yrotation
                    JOINT lMid2
                    {
                      OFFSET 3.9766 -1.54 2.3863
                      CHANNELS 6 Xposition Yposition Zposition Zrotation Xrotation Yrotation
                      JOINT lMid2_End
                      {
                        OFFSET 1.4042 -1.926 1.125
                        CHANNELS 6 Xposition Yposition Zposition Zrotation Xrotation Yrotation
                        End Site
                        {
                          OFFSET 0.014 -0.0193 0.0113
                        }
                      }
                    }
                  }
                }
                JOINT lCarpal2
                {
                  OFFSET 2.0956 0.66 -0.3894
                  CHANNELS 6 Xposition Yposition Zposition Zrotation Xrotation Yrotation
                  JOINT lRing1
                  {
                    OFFSET 5.0395 -0.09 2.4971
                    CHANNELS 6 Xposition Yposition Zposition Zrotation Xrotation Yrotation
                    JOINT lRing2
                    {
                      OFFSET 3.7921 -1.552 1.4806
                      CHANNELS 6 Xposition Yposition Zposition Zrotation Xrotation Yrotation
                      JOINT lRing2_End
                      {
                        OFFSET 1.4655 -1.808 0.9609
                        CHANNELS 6 Xposition Yposition Zposition Zrotation Xrotation Yrotation
                        End Site
                        {
                          OFFSET 0.0147 -0.0181 0.0096
                        }
                      }
                    }
                  }
                  JOINT lPinky1
                  {
                    OFFSET 4.9141 -1.269 0.3591
                    CHANNELS 6 Xposition Yposition Zposition Zrotation Xrotation Yrotation
                    JOINT lPinky2
                    {
                      OFFSET 3.1477 -1.685 0.8462
                      CHANNELS 6 Xposition Yposition Zposition Zrotation Xrotation Yrotation
                      JOINT lPinky2_End
                      {
                        OFFSET 0.8055 -1.585 0.7955
                        CHANNELS 6 Xposition Yposition Zposition Zrotation Xrotation Yrotation
                        End Site
                        {
                          OFFSET 0.0081 -0.0158 0.008
                        }
                      }
                    }
                  }
                }
              }
            }
          }
        }
        JOINT rCollar
        {
          OFFSET -1.7069 20.075 5.0056
          CHANNELS 6 Xposition Yposition Zposition Zrotation Xrotation Yrotation
          JOINT rShldr
          {
            OFFSET -13.6458 -0.047 -4.849
            CHANNELS 6 Xposition Yposition Zposition Zrotation Xrotation Yrotation
            JOINT rForeArm
            {
              OFFSET -28.3255 -0.9759 2.2888
              CHANNELS 6 Xposition Yposition Zposition Zrotation Xrotation Yrotation
              JOINT rHand
              {
                OFFSET -22.1583 -0.53 10.8316
                CHANNELS 6 Xposition Yposition Zposition Zrotation Xrotation Yrotation
                JOINT rThumb1
                {
                  OFFSET -0.786 0.112 2.5817
                  CHANNELS 6 Xposition Yposition Zposition Zrotation Xrotation Yrotation
                  JOINT rThumb2
                  {
                    OFFSET -0.3601 -0.878 4.2331
                    CHANNELS 6 Xposition Yposition Zposition Zrotation Xrotation Yrotation
                    JOINT rThumb2_End
                    {
                      OFFSET -1.8127 -1.216 2.2227
                      CHANNELS 6 Xposition Yposition Zposition Zrotation Xrotation Yrotation
                      End Site
                      {
                        OFFSET -0.0181 -0.0122 0.0222
                      }
                    }
                  }
                }
                JOINT rCarpal1
                {
                  OFFSET -0.9571 1.114 1.7695
                  CHANNELS 6 Xposition Yposition Zposition Zrotation Xrotation Yrotation
                  JOINT rIndex1
                  {
                    OFFSET -4.1246 0.487 4.1451
                    CHANNELS 6 Xposition Yposition Zposition Zrotation Xrotation Yrotation
                    JOINT rIndex2
                    {
                      OFFSET -3.4052 -1.454 2.7682
                      CHANNELS 6 Xposition Yposition Zposition Zrotation Xrotation Yrotation
                      JOINT rIndex2_End
                      {
                        OFFSET -1.4531 -1.795 1.2713
                        CHANNELS 6 Xposition Yposition Zposition Zrotation Xrotation Yrotation
                        End Site
                        {
                          OFFSET -0.0145 -0.018 0.0127
                        }
                      }
                    }
                  }
                  JOINT rMid1
                  {
                    OFFSET -5.6954 0.21 2.1184
                    CHANNELS 6 Xposition Yposition Zposition Zrotation Xrotation Yrotation
                    JOINT rMid2
                    {
                      OFFSET -3.9766 -1.54 2.3863
                      CHANNELS 6 Xposition Yposition Zposition Zrotation Xrotation Yrotation
                      JOINT rMid2_End
                      {
                        OFFSET -1.4042 -1.926 1.125
                        CHANNELS 6 Xposition Yposition Zposition Zrotation Xrotation Yrotation
                        End Site
                        {
                          OFFSET -0.014 -0.0193 0.0113
                        }
                      }
                    }
                  }
                }
                JOINT rCarpal2
                {
                  OFFSET -2.0956 0.66 -0.3894
                  CHANNELS 6 Xposition Yposition Zposition Zrotation Xrotation Yrotation
                  JOINT rRing1
                  {
                    OFFSET -5.0395 -0.09 2.4971
                    CHANNELS 6 Xposition Yposition Zposition Zrotation Xrotation Yrotation
                    JOINT rRing2
                    {
                      OFFSET -3.7921 -1.552 1.4806
                      CHANNELS 6 Xposition Yposition Zposition Zrotation Xrotation Yrotation
                      JOINT rRing2_End
                      {
                        OFFSET -1.4655 -1.808 0.9609
                        CHANNELS 6 Xposition Yposition Zposition Zrotation Xrotation Yrotation
                        End Site
                        {
                          OFFSET -0.0147 -0.0181 0.0096
                        }
                      }
                    }
                  }
                  JOINT rPinky1
                  {
                    OFFSET -4.9141 -1.269 0.3592
                    CHANNELS 6 Xposition Yposition Zposition Zrotation Xrotation Yrotation
                    JOINT rPinky2
                    {
                      OFFSET -3.1477 -1.685 0.8462
                      CHANNELS 6 Xposition Yposition Zposition Zrotation Xrotation Yrotation
                      JOINT rPinky2_End
                      {
                        OFFSET -0.8055 -1.585 0.7955
                        CHANNELS 6 Xposition Yposition Zposition Zrotation Xrotation Yrotation
                        End Site
                        {
                          OFFSET -0.0081 -0.0158 0.008
                        }
                      }
                    }
                  }
                }
              }
            }
          }
        }
      }
    }
  }
  JOINT lThigh
  {
    OFFSET 8.367 -8.2066 0.5982
    CHANNELS 6 Xposition Yposition Zposition Zrotation Xrotation Yrotation
    JOINT lShin
    {
      OFFSET 2.1923 -43.463 -0.4932
      CHANNELS 6 Xposition Yposition Zposition Zrotation Xrotation Yrotation
      JOINT lFoot
      {
        OFFSET 0.7333 -45.8593 -2.6451
        CHANNELS 6 Xposition Yposition Zposition Zrotation Xrotation Yrotation
        End Site
        {
          OFFSET 2.6618 -4.2699 12.3931
        }
      }
    }
  }
  JOINT rThigh
  {
    OFFSET -8.367 -8.2066 0.5982
    CHANNELS 6 Xposition Yposition Zposition Zrotation Xrotation Yrotation
    JOINT rShin
    {
      OFFSET -2.1923 -43.463 -0.4931
      CHANNELS 6 Xposition Yposition Zposition Zrotation Xrotation Yrotation
      JOINT rFoot
      {
        OFFSET -0.7333 -45.8593 -2.6451
        CHANNELS 6 Xposition Yposition Zposition Zrotation Xrotation Yrotation
        End Site
        {
          OFFSET -2.6618 -4.2699 12.3931
        }
      }
    }
  }
}
MOTION
Frames:	4
Frame Time:	0.0333333
44.8902 28.7398 31.0842 92.8129 89.9863 135.18 -7.10543e-015 -1.186 -1.5018 8.76963 4.01394 3.56437 -7.10543e-015 9.964 0.2134 17.3436 8.51884 6.49835 -3.55271e-015 13.134 -3.2573 17.3436 8.51885 6.49833 7.10543e-015 20.686 -1.6905 16.0223 -0.00230996 -7.00166 -7.10543e-015 7.238 -0.1237 7.18259 -0.440473 -28.0609 1.7069 20.075 5.0056 -1.22207 3.32516 34.8263 13.6458 -0.047 -4.849 4.7037 31.1043 -27.487 28.3255 -0.9759 2.2888 41.9558 -30.8558 -32.2623 22.1583 -0.53 10.8316 -0.921214 12.0471 0.813595 0.786 0.112 2.5817 -1.59028e-015 3.18055e-015 3.18055e-015 0.3601 -0.878 4.2331 2.02714e-007 -6.44081e-008 -1.68429e-008 1.8127 -1.216 2.2227 2.06736e-014 -1.43125e-014 -2.22639e-014 0.9571 1.114 1.7695 -1.32417e-031 2.38542e-015 3.18055e-015 4.1246 0.487 4.1451 7.95139e-016 3.97569e-015 1.90833e-014 3.4052 -1.454 2.7682 2.02714e-007 -6.44081e-008 -1.68429e-008 1.4531 -1.795 1.2713 2.3059e-014 -9.54166e-015 -1.59028e-014 5.6954 0.21 2.1184 7.95139e-016 3.97569e-015 1.90833e-014 3.9766 -1.54 2.3863 2.02714e-007 -6.44081e-008 -1.68429e-008 1.4042 -1.926 1.125 2.3059e-014 -9.54166e-015 -1.59028e-014 2.0956 0.66 -0.3894 -1.32417e-031 2.38542e-015 3.18055e-015 5.0395 -0.09 2.4971 7.95139e-016 3.97569e-015 1.90833e-014 3.7921 -1.552 1.4806 2.02714e-007 -6.44081e-008 -1.68429e-008 1.4655 -1.808 0.9609 2.3059e-014 -9.54166e-015 -1.59028e-014 4.9141 -1.269 0.3591 7.95139e-016 3.97569e-015 1.90833e-014 3.1477 -1.685 0.8462 2.02714e-007 -6.44081e-008 -1.68429e-008 0.8055 -1.585 0.7955 2.3059e-014 -9.54166e-015 -1.59028e-014 -1.7069 20.075 5.0056 23.2182 6.7177 19.4233 -13.6458 -0.047 -4.849 6.0546 -51.6173 -36.7899 -28.3255 -0.9759 2.2888 -0.449257 -14.0918 -16.2504 -22.1583 -0.53 10.8316 29.668 8.49571 -6.2339 -0.786 0.112 2.5817 -1.37559e-006 -2.17044e-006 2.20606e-006 -0.3601 -0.878 4.2331 -6.87793e-007 -1.08522e-006 1.10303e-006 -1.8127 -1.216 2.2227 1.59028e-015 1.59028e-015 -9.54166e-015 -0.9571 1.114 1.7695 -1.59028e-015 0 6.36111e-015 -4.1246 0.487 4.1451 -1.37559e-006 -2.17044e-006 2.20606e-006 -3.4052 -1.454 2.7682 -6.87793e-007 -1.08522e-006 1.10303e-006 -1.4531 -1.795 1.2713 -3.18055e-015 -3.18055e-015 -6.36111e-015 -5.6954 0.21 2.1184 -1.37559e-006 -2.17044e-006 2.20606e-006 -3.9766 -1.54 2.3863 -6.87793e-007 -1.08522e-006 1.10303e-006 -1.4042 -1.926 1.125 -3.18055e-015 -3.18055e-015 -6.36111e-015 -2.0956 0.66 -0.3894 -1.59028e-015 0 6.36111e-015 -5.0395 -0.09 2.4971 -1.37559e-006 -2.17044e-006 2.20606e-006 -3.7921 -1.552 1.4806 -6.87793e-007 -1.08522e-006 1.10303e-006 -1.4655 -1.808 0.9609 -3.18055e-015 -3.18055e-015 -6.36111e-015 -4.9141 -1.269 0.3592 -1.37559e-006 -2.17044e-006 2.20606e-006 -3.1477 -1.685 0.8462 -6.87793e-007 -1.08522e-006 1.10303e-006 -0.8055 -1.585 0.7955 -3.18055e-015 -3.18055e-015 -6.36111e-015 8.367 -8.2066 0.5982 131.838 -43.4616 131.311 2.1923 -43.463 -0.4932 33.7646 64.5888 -29.9446 0.7333 -45.8593 -2.6451 -16.7413 16.2577 8.52008 -8.367 -8.2066 0.5982 146.129 -31.4552 158.93 -2.1923 -43.463 -0.4931 79.6903 47.3117 -80.5333 -0.7333 -45.8593 -2.6451 4.4016 13.9435 5.35001 
44.8907 28.7391 30.9452 92.8129 89.9863 135.18 0 -1.186 -1.5018 8.68912 3.9965 3.58165 -7.10543e-015 9.964 0.2134 17.1812 8.48267 6.54167 3.55271e-015 13.134 -3.2573 17.1812 8.48267 6.54167 0 20.686 -1.6905 16.2086 -0.0023896 -7.00162 1.42109e-014 7.238 -0.1237 7.36014 -0.470642 -28.2354 1.7069 20.075 5.0056 -0.600457 3.18204 34.9865 13.6458 -0.047 -4.849 4.70371 31.1043 -27.487 28.3255 -0.9759 2.2888 42.0366 -30.9567 -32.4029 22.1583 -0.53 10.8316 -1.21526 12.0347 0.808745 0.786 0.112 2.5817 5.51762e-008 8.7528e-007 -6.13314e-009 0.3601 -0.878 4.2331 2.02703e-007 -6.44697e-008 -1.6753e-008 1.8127 -1.216 2.2227 5.51762e-008 8.7528e-007 -6.13315e-009 0.9571 1.114 1.7695 7.95139e-016 -1.59028e-015 -0 4.1246 0.487 4.1451 5.51762e-008 8.7528e-007 -6.13313e-009 3.4052 -1.454 2.7682 2.02703e-007 -6.44697e-008 -1.6753e-008 1.4531 -1.795 1.2713 5.51762e-008 8.7528e-007 -6.13315e-009 5.6954 0.21 2.1184 5.51762e-008 8.7528e-007 -6.13313e-009 3.9766 -1.54 2.3863 2.02703e-007 -6.44697e-008 -1.6753e-008 1.4042 -1.926 1.125 5.51762e-008 8.7528e-007 -6.13315e-009 2.0956 0.66 -0.3894 7.95139e-016 -1.59028e-015 -0 5.0395 -0.09 2.4971 5.51762e-008 8.7528e-007 -6.13313e-009 3.7921 -1.552 1.4806 2.02703e-007 -6.44697e-008 -1.6753e-008 1.4655 -1.808 0.9609 5.51762e-008 8.7528e-007 -6.13315e-009 4.9141 -1.269 0.3591 5.51762e-008 8.7528e-007 -6.13313e-009 3.1477 -1.685 0.8462 2.02703e-007 -6.44697e-008 -1.6753e-008 0.8055 -1.585 0.7955 5.51762e-008 8.7528e-007 -6.13315e-009 -1.7069 20.075 5.0056 23.4954 6.7168 19.4142 -13.6458 -0.047 -4.849 6.05458 -51.6173 -36.7899 -28.3255 -0.9759 2.2888 -0.449249 -14.0918 -16.2504 -22.1583 -0.53 10.8316 29.668 8.49573 -6.23389 -0.786 0.112 2.5817 4.77083e-015 1.59028e-015 -0 -0.3601 -0.878 4.2331 -0 -3.18055e-015 -0 -1.8127 -1.216 2.2227 -1.59028e-015 -1.59028e-015 -0 -0.9571 1.114 1.7695 4.77083e-015 1.59028e-015 -0 -4.1246 0.487 4.1451 -4.77083e-015 -3.18055e-015 6.36111e-015 -3.4052 -1.454 2.7682 1.59028e-015 1.59028e-015 -0 -1.4531 -1.795 1.2713 4.77083e-015 6.36111e-015 -0 -5.6954 0.21 2.1184 -4.77083e-015 -3.18055e-015 6.36111e-015 -3.9766 -1.54 2.3863 1.59028e-015 1.59028e-015 -0 -1.4042 -1.926 1.125 4.77083e-015 6.36111e-015 -0 -2.0956 0.66 -0.3894 4.77083e-015 1.59028e-015 -0 -5.0395 -0.09 2.4971 -4.77083e-015 -3.18055e-015 6.36111e-015 -3.7921 -1.552 1.4806 1.59028e-015 1.59028e-015 -0 -1.4655 -1.808 0.9609 4.77083e-015 6.36111e-015 -0 -4.9141 -1.269 0.3592 -4.77083e-015 -3.18055e-015 6.36111e-015 -3.1477 -1.685 0.8462 1.59028e-015 1.59028e-015 -0 -0.8055 -1.585 0.7955 4.77083e-015 6.36111e-015 -0 8.367 -8.2066 0.5982 132.046 -43.4932 131.325 2.1923 -43.463 -0.4932 33.7639 64.5882 -29.9414 0.7333 -45.8593 -2.6451 -16.8755 16.3096 8.68341 -8.367 -8.2066 0.5982 146.395 -31.6046 158.82 -2.1923 -43.463 -0.4931 79.6869 47.3117 -80.5361 -0.7333 -45.8593 -2.6451 4.09823 14.1091 5.61701 
44.8912 28.7384 30.8062 92.8129 89.9863 135.18 0 -1.186 -1.5018 8.6086 3.97907 3.59894 0 9.964 0.2134 17.0189 8.4464 6.58495 -7.10543e-015 13.134 -3.2573 17.0189 8.44641 6.58496 0 20.686 -1.6905 16.3947 -0.00269722 -7.0015 -7.10543e-015 7.238 -0.1237 7.53752 -0.501329 -28.4096 1.7069 20.075 5.0056 0.0213916 3.04068 35.1482 13.6458 -0.047 -4.849 4.70371 31.1043 -27.487 28.3255 -0.9759 2.2888 42.1171 -31.0578 -32.5436 22.1583 -0.53 10.8316 -1.50929 12.0223 0.803842 0.786 0.112 2.5817 4.05383e-007 -1.29062e-007 -3.33201e-008 0.3601 -0.878 4.2331 -8.82781e-032 -1.59028e-015 -3.18055e-015 1.8127 -1.216 2.2227 4.05383e-007 -1.29062e-007 -3.33201e-008 0.9571 1.114 1.7695 7.95139e-016 -2.38542e-015 -3.18055e-015 4.1246 0.487 4.1451 4.05383e-007 -1.29062e-007 -3.33201e-008 3.4052 -1.454 2.7682 7.95139e-016 -7.95139e-016 -0 1.4531 -1.795 1.2713 4.05383e-007 -1.29062e-007 -3.33201e-008 5.6954 0.21 2.1184 4.05383e-007 -1.29062e-007 -3.33201e-008 3.9766 -1.54 2.3863 7.95139e-016 -7.95139e-016 -0 1.4042 -1.926 1.125 4.05383e-007 -1.29062e-007 -3.33201e-008 2.0956 0.66 -0.3894 7.95139e-016 -2.38542e-015 -3.18055e-015 5.0395 -0.09 2.4971 4.05383e-007 -1.29062e-007 -3.33201e-008 3.7921 -1.552 1.4806 7.95139e-016 -7.95139e-016 -0 1.4655 -1.808 0.9609 4.05383e-007 -1.29062e-007 -3.33201e-008 4.9141 -1.269 0.3591 4.05383e-007 -1.29062e-007 -3.33201e-008 3.1477 -1.685 0.8462 7.95139e-016 -7.95139e-016 -0 0.8055 -1.585 0.7955 4.05383e-007 -1.29062e-007 -3.33201e-008 -1.7069 20.075 5.0056 23.7726 6.71585 19.4051 -13.6458 -0.047 -4.849 6.05458 -51.6173 -36.7899 -28.3255 -0.9759 2.2888 -0.449262 -14.0918 -16.2504 -22.1583 -0.53 10.8316 29.668 8.49571 -6.23388 -0.786 0.112 2.5817 1.59028e-015 4.77083e-015 3.18055e-015 -0.3601 -0.878 4.2331 6.89504e-007 1.08572e-006 -1.10089e-006 -1.8127 -1.216 2.2227 0 6.36111e-015 -0 -0.9571 1.114 1.7695 -1.59028e-015 0 3.18055e-015 -4.1246 0.487 4.1451 -4.77083e-015 -1.59028e-015 9.54166e-015 -3.4052 -1.454 2.7682 6.89504e-007 1.08572e-006 -1.10089e-006 -1.4531 -1.795 1.2713 1.59028e-015 3.18055e-015 -0 -5.6954 0.21 2.1184 -4.77083e-015 -1.59028e-015 9.54166e-015 -3.9766 -1.54 2.3863 6.89504e-007 1.08572e-006 -1.10089e-006 -1.4042 -1.926 1.125 1.59028e-015 3.18055e-015 -0 -2.0956 0.66 -0.3894 -1.59028e-015 0 3.18055e-015 -5.0395 -0.09 2.4971 -4.77083e-015 -1.59028e-015 9.54166e-015 -3.7921 -1.552 1.4806 6.89504e-007 1.08572e-006 -1.10089e-006 -1.4655 -1.808 0.9609 1.59028e-015 3.18055e-015 -0 -4.9141 -1.269 0.3592 -4.77083e-015 -1.59028e-015 9.54166e-015 -3.1477 -1.685 0.8462 6.89504e-007 1.08572e-006 -1.10089e-006 -0.8055 -1.585 0.7955 1.59028e-015 3.18055e-015 -0 8.367 -8.2066 0.5982 132.254 -43.5248 131.338 2.1923 -43.463 -0.4932 33.7632 64.5875 -29.9383 0.7333 -45.8593 -2.6451 -17.0099 16.3612 8.84691 -8.367 -8.2066 0.5982 146.661 -31.7545 158.711 -2.1923 -43.463 -0.4931 79.6834 47.3118 -80.5387 -0.7333 -45.8593 -2.6451 3.79387 14.2734 5.88508 
44.8917 28.7376 30.6672 92.8129 89.9863 135.18 0 -1.186 -1.5018 8.52816 3.96164 3.61619 0 9.964 0.2134 16.8565 8.41002 6.6282 -1.06581e-014 13.134 -3.2573 16.8565 8.41002 6.62821 0 20.686 -1.6905 16.5808 -0.00277929 -7.00148 7.10543e-015 7.238 -0.1237 7.71471 -0.532546 -28.5837 1.7069 20.075 5.0056 0.643433 2.90113 35.3114 13.6458 -0.047 -4.849 4.7037 31.1043 -27.487 28.3255 -0.9759 2.2888 42.1974 -31.159 -32.6842 22.1583 -0.53 10.8316 -1.80329 12.01 0.798878 0.786 0.112 2.5817 -1.52801e-007 2.75312e-007 -8.84974e-007 0.3601 -0.878 4.2331 7.95139e-016 2.38542e-015 1.90833e-014 1.8127 -1.216 2.2227 8.16533e-007 4.06226e-007 8.29212e-007 0.9571 1.114 1.7695 -0 -2.38542e-015 -0 4.1246 0.487 4.1451 -1.52801e-007 2.75312e-007 -8.84974e-007 3.4052 -1.454 2.7682 1.59028e-015 0 1.27222e-014 1.4531 -1.795 1.2713 8.16533e-007 4.06226e-007 8.29212e-007 5.6954 0.21 2.1184 -1.52801e-007 2.75312e-007 -8.84974e-007 3.9766 -1.54 2.3863 1.59028e-015 0 1.27222e-014 1.4042 -1.926 1.125 8.16533e-007 4.06226e-007 8.29212e-007 2.0956 0.66 -0.3894 -0 -2.38542e-015 -0 5.0395 -0.09 2.4971 -1.52801e-007 2.75312e-007 -8.84974e-007 3.7921 -1.552 1.4806 1.59028e-015 0 1.27222e-014 1.4655 -1.808 0.9609 8.16533e-007 4.06226e-007 8.29212e-007 4.9141 -1.269 0.3591 -1.52801e-007 2.75312e-007 -8.84974e-007 3.1477 -1.685 0.8462 1.59028e-015 0 1.27222e-014 0.8055 -1.585 0.7955 8.16533e-007 4.06226e-007 8.29212e-007 -1.7069 20.075 5.0056 24.0498 6.71488 19.396 -13.6458 -0.047 -4.849 6.05458 -51.6173 -36.7899 -28.3255 -0.9759 2.2888 -0.449271 -14.0918 -16.2504 -22.1583 -0.53 10.8316 29.668 8.49572 -6.23389 -0.786 0.112 2.5817 -1.59028e-015 0 6.36111e-015 -0.3601 -0.878 4.2331 -1.50569e-007 -1.44818e-006 -1.78592e-006 -1.8127 -1.216 2.2227 1.50569e-007 1.44818e-006 1.78592e-006 -0.9571 1.114 1.7695 0 0 -0 -4.1246 0.487 4.1451 -3.18055e-015 0 6.36111e-015 -3.4052 -1.454 2.7682 -1.50569e-007 -1.44818e-006 -1.78592e-006 -1.4531 -1.795 1.2713 1.50569e-007 1.44818e-006 1.78592e-006 -5.6954 0.21 2.1184 -3.18055e-015 0 6.36111e-015 -3.9766 -1.54 2.3863 -1.50569e-007 -1.44818e-006 -1.78592e-006 -1.4042 -1.926 1.125 1.50569e-007 1.44818e-006 1.78592e-006 -2.0956 0.66 -0.3894 0 0 -0 -5.0395 -0.09 2.4971 -3.18055e-015 0 6.36111e-015 -3.7921 -1.552 1.4806 -1.50569e-007 -1.44818e-006 -1.78592e-006 -1.4655 -1.808 0.9609 1.50569e-007 1.44818e-006 1.78592e-006 -4.9141 -1.269 0.3592 -3.18055e-015 0 6.36111e-015 -3.1477 -1.685 0.8462 -1.50569e-007 -1.44818e-006 -1.78592e-006 -0.8055 -1.585 0.7955 1.50569e-007 1.44818e-006 1.78592e-006 8.367 -8.2066 0.5982 132.462 -43.5563 131.353 2.1923 -43.463 -0.4932 33.7626 64.5868 -29.9352 0.7333 -45.8593 -2.6451 -17.1445 16.4125 9.01057 -8.367 -8.2066 0.5982 146.926 -31.9048 158.603 -2.1923 -43.463 -0.4931 79.6798 47.3118 -80.5412 -0.7333 -45.8593 -2.6451 3.48852 14.4363 6.15417 
